{
    "asset" : {
        "generator" : "Khronos glTF Blender I/O v3.3.27",
        "version" : "2.0"
    },
    "scene" : 0,
    "scenes" : [
        {
            "name" : "Scene",
            "nodes" : [
                5,
                6,
                7
            ]
        }
    ],
    "nodes" : [
        {
            "mesh" : 0,
            "name" : "Ring001_Ring1_Mat_0",
            "scale" : [
                0.01313796453177929,
                0.01313796453177929,
                0.01313796453177929
            ],
            "translation" : [
                -52.252498626708984,
                22.55935287475586,
                -48.07782745361328
            ]
        },
        {
            "children" : [
                0
            ],
            "name" : "Ring001",
            "rotation" : [
                -0.7071068286895752,
                0,
                0,
                0.7071067094802856
            ],
            "translation" : [
                3.814697265625e-06,
                3.814697265625e-06,
                -3.814697265625e-06
            ]
        },
        {
            "name" : "Ring002",
            "rotation" : [
                -0.850488543510437,
                -0.09373997896909714,
                0.12134567648172379,
                0.5031474232673645
            ],
            "translation" : [
                -15.45907211303711,
                13.306880950927734,
                -23.69487190246582
            ]
        },
        {
            "children" : [
                1,
                2
            ],
            "name" : "RootNode",
            "translation" : [
                7.62939453125e-06,
                3.814697265625e-06,
                -3.814697265625e-06
            ]
        },
        {
            "children" : [
                3
            ],
            "name" : "70c1481db25a45d9b5f9eba8a25152da.fbx",
            "rotation" : [
                0.7071068286895752,
                0,
                0,
                0.7071067094802856
            ],
            "translation" : [
                0,
                -3.1175891308521386e-06,
                7.665707016712986e-06
            ]
        },
        {
            "children" : [
                4
            ],
            "name" : "Sketchfab_model",
            "rotation" : [
                -0.7071068286895752,
                0,
                0,
                0.7071067094802856
            ],
            "scale" : [
                0.050000011920928955,
                0.050000015646219254,
                0.050000015646219254
            ],
            "translation" : [
                2.7158451080322266,
                2.579765796661377,
                1.406079888343811
            ]
        },
        {
            "name" : "Cube"
        },
        {
            "name" : "Circle",
            "scale" : [
                0.050000011920928955,
                0.050000011920928955,
                0.050000011920928955
            ],
            "translation" : [
                2.7158451080322266,
                2.579765796661377,
                1.406079888343811
            ]
        }
    ],
    "materials" : [
        {
            "doubleSided" : true,
            "emissiveFactor" : [
                1,
                1,
                1
            ],
            "emissiveTexture" : {
                "index" : 0
            },
            "name" : "Ring1_Mat",
            "pbrMetallicRoughness" : {
                "baseColorTexture" : {
                    "index" : 1
                },
                "metallicFactor" : 0.5,
                "roughnessFactor" : 0.5
            }
        }
    ],
    "meshes" : [
        {
            "name" : "Ring001_Ring1_Mat_0",
            "primitives" : [
                {
                    "attributes" : {
                        "POSITION" : 0,
                        "NORMAL" : 1,
                        "TEXCOORD_0" : 2
                    },
                    "indices" : 3,
                    "material" : 0
                }
            ]
        }
    ],
    "textures" : [
        {
            "sampler" : 0,
            "source" : 0
        },
        {
            "sampler" : 0,
            "source" : 1
        }
    ],
    "images" : [
        {
            "bufferView" : 4,
            "mimeType" : "image/jpeg",
            "name" : "Image_1"
        },
        {
            "bufferView" : 5,
            "mimeType" : "image/jpeg",
            "name" : "Image_0"
        }
    ],
    "accessors" : [
        {
            "bufferView" : 0,
            "componentType" : 5126,
            "count" : 4120,
            "max" : [
                25,
                25,
                13.85165023803711
            ],
            "min" : [
                -25,
                -25,
                6.1467084884643555
            ],
            "type" : "VEC3"
        },
        {
            "bufferView" : 1,
            "componentType" : 5126,
            "count" : 4120,
            "type" : "VEC3"
        },
        {
            "bufferView" : 2,
            "componentType" : 5126,
            "count" : 4120,
            "type" : "VEC2"
        },
        {
            "bufferView" : 3,
            "componentType" : 5123,
            "count" : 6600,
            "type" : "SCALAR"
        }
    ],
    "bufferViews" : [
        {
            "buffer" : 0,
            "byteLength" : 49440,
            "byteOffset" : 0,
            "target" : 34962
        },
        {
            "buffer" : 0,
            "byteLength" : 49440,
            "byteOffset" : 49440,
            "target" : 34962
        },
        {
            "buffer" : 0,
            "byteLength" : 32960,
            "byteOffset" : 98880,
            "target" : 34962
        },
        {
            "buffer" : 0,
            "byteLength" : 13200,
            "byteOffset" : 131840,
            "target" : 34963
        },
        {
            "buffer" : 0,
            "byteLength" : 72954,
            "byteOffset" : 145040
        },
        {
            "buffer" : 0,
            "byteLength" : 158976,
            "byteOffset" : 217996
        }
    ],
    "samplers" : [
        {
            "magFilter" : 9729,
            "minFilter" : 9987
        }
    ],
    "buffers" : [
        {
            "byteLength" : 376972,
            "uri" : "data:application/octet-stream;base64,"
        }
    ]
}
